<?xml version="1.0"?>
<svg xmlns="http://www.w3.org/2000/svg" xmlns:xlink="http://www.w3.org/1999/xlink" version="1.1" id="Layer_1" x="0px" y="0px" viewBox="0 0 511.999 511.999" style="enable-background:new 0 0 511.999 511.999;" xml:space="preserve" width="512px" height="512px"><g><g>
	<g>
		<path d="M437.517,0H74.484c-6.272,0-11.357,5.086-11.357,11.357v402.94c0,6.272,5.086,11.357,11.357,11.357h74.372v63.061    c0,6.272,5.086,11.357,11.357,11.357h92.639c6.271,0,11.357-5.086,11.357-11.357v-74.419c0-0.695-0.062-1.375-0.182-2.035v-30.305    h69.938l0.148,118.699c0.008,6.267,5.09,11.343,11.357,11.343h92.044c6.272,0,11.357-5.086,11.357-11.357V11.357    C448.874,5.086,443.788,0,437.517,0z M356.815,489.285l-0.148-118.699c-0.008-6.267-5.09-11.343-11.357-11.343h-92.638    c-6.272,0-11.357,5.086-11.357,11.357v43.697c0,0.694,0.062,1.375,0.182,2.035v61.026h-69.925v-63.061    c0-6.271-5.086-11.357-11.357-11.357H85.841V22.715h340.317v466.571H356.815z" data-original="#000000" class="active-path" fill="#000000"/>
	</g>
</g><g>
	<g>
		<path d="M374.257,53.192H137.741c-6.271,0-11.357,5.086-11.357,11.357v73.704c0,6.273,5.086,11.357,11.357,11.357h236.516    c6.271,0,11.357-5.086,11.357-11.357V64.549C385.615,58.278,380.529,53.192,374.257,53.192z M362.9,126.896H149.099v-50.99H362.9    V126.896z" data-original="#000000" class="active-path" fill="#000000"/>
	</g>
</g><g>
	<g>
		<path d="M338.917,228.067H135.603c-6.272,0-11.357,5.086-11.357,11.357c0,6.272,5.086,11.357,11.357,11.357h203.314    c6.273,0,11.357-5.086,11.357-11.357C350.274,233.153,345.188,228.067,338.917,228.067z" data-original="#000000" class="active-path" fill="#000000"/>
	</g>
</g><g>
	<g>
		<path d="M387.528,237.203c-0.148-0.727-0.362-1.442-0.646-2.124c-0.284-0.683-0.637-1.341-1.046-1.965    c-0.408-0.613-0.885-1.193-1.407-1.726c-0.522-0.522-1.103-0.999-1.727-1.408c-0.613-0.409-1.272-0.761-1.964-1.045    c-0.683-0.284-1.397-0.5-2.124-0.647c-1.465-0.295-2.976-0.295-4.441,0c-0.716,0.148-1.431,0.363-2.124,0.647    c-0.681,0.284-1.34,0.636-1.953,1.045c-0.625,0.409-1.205,0.886-1.727,1.408c-0.522,0.534-0.999,1.112-1.42,1.726    c-0.408,0.625-0.761,1.283-1.045,1.965s-0.499,1.396-0.646,2.124c-0.149,0.737-0.216,1.477-0.216,2.214    c0,0.75,0.068,1.489,0.216,2.226c0.148,0.728,0.362,1.443,0.646,2.124c0.284,0.683,0.637,1.341,1.045,1.955    c0.42,0.625,0.897,1.204,1.42,1.726c0.522,0.534,1.103,0.999,1.727,1.42c0.613,0.409,1.272,0.761,1.953,1.045    c0.693,0.284,1.408,0.5,2.124,0.647c0.738,0.148,1.488,0.227,2.226,0.227s1.488-0.08,2.215-0.227    c0.727-0.148,1.442-0.363,2.124-0.647c0.692-0.284,1.35-0.636,1.964-1.045c0.625-0.42,1.205-0.886,1.727-1.42    c0.522-0.522,0.999-1.102,1.407-1.726c0.409-0.613,0.762-1.272,1.046-1.955c0.284-0.681,0.499-1.396,0.646-2.124    c0.148-0.737,0.227-1.477,0.227-2.226C387.756,238.68,387.676,237.94,387.528,237.203z" data-original="#000000" class="active-path" fill="#000000"/>
	</g>
</g><g>
	<g>
		<path d="M376.396,281.57H173.082c-6.271,0-11.357,5.086-11.357,11.357s5.086,11.357,11.357,11.357h203.314    c6.271,0,11.357-5.086,11.357-11.357C387.753,286.656,382.669,281.57,376.396,281.57z" data-original="#000000" class="active-path" fill="#000000"/>
	</g>
</g><g>
	<g>
		<path d="M146.743,290.707c-0.148-0.727-0.363-1.442-0.647-2.124c-0.284-0.681-0.636-1.34-1.045-1.964    c-0.42-0.613-0.897-1.205-1.42-1.727c-0.522-0.522-1.102-0.999-1.726-1.407c-0.613-0.409-1.272-0.761-1.955-1.045    c-0.692-0.284-1.407-0.5-2.123-0.647c-1.478-0.295-2.976-0.295-4.441,0c-0.728,0.148-1.443,0.363-2.124,0.647    c-0.693,0.284-1.352,0.636-1.965,1.045c-0.625,0.408-1.204,0.885-1.726,1.407c-0.522,0.522-0.999,1.113-1.408,1.727    c-0.409,0.625-0.761,1.283-1.045,1.964c-0.284,0.683-0.5,1.397-0.647,2.124c-0.148,0.738-0.226,1.477-0.226,2.226    c0,0.738,0.078,1.476,0.226,2.215c0.147,0.727,0.362,1.444,0.646,2.124c0.284,0.681,0.636,1.34,1.045,1.953    c0.409,0.625,0.886,1.205,1.408,1.727c0.522,0.534,1.102,0.999,1.726,1.42c0.613,0.408,1.272,0.761,1.965,1.045    c0.681,0.284,1.396,0.499,2.124,0.646c0.727,0.149,1.476,0.216,2.215,0.216c0.737,0,1.488-0.068,2.226-0.216    c0.716-0.148,1.431-0.362,2.123-0.646c0.683-0.284,1.341-0.637,1.955-1.045c0.625-0.42,1.204-0.886,1.726-1.42    c2.124-2.112,3.329-5.032,3.329-8.019C146.959,292.184,146.89,291.446,146.743,290.707z" data-original="#000000" class="active-path" fill="#000000"/>
	</g>
</g><g>
	<g>
		<path d="M376.396,174.562H173.082c-6.271,0-11.357,5.086-11.357,11.357c0,6.272,5.086,11.357,11.357,11.357h203.314    c6.271,0,11.357-5.086,11.357-11.357C387.753,179.648,382.669,174.562,376.396,174.562z" data-original="#000000" class="active-path" fill="#000000"/>
	</g>
</g><g>
	<g>
		<path d="M146.743,183.698c-0.148-0.727-0.363-1.443-0.647-2.124s-0.636-1.34-1.045-1.964c-0.42-0.613-0.897-1.205-1.42-1.727    c-0.522-0.522-1.102-0.988-1.726-1.408c-0.613-0.408-1.272-0.761-1.955-1.045c-0.692-0.284-1.407-0.499-2.123-0.646    c-1.478-0.296-2.976-0.296-4.441,0c-0.728,0.148-1.443,0.362-2.124,0.646c-0.693,0.284-1.352,0.637-1.965,1.045    c-0.625,0.42-1.204,0.886-1.726,1.408c-0.522,0.522-0.999,1.113-1.408,1.727c-0.409,0.625-0.761,1.283-1.045,1.964    s-0.5,1.397-0.647,2.124c-0.148,0.738-0.226,1.477-0.226,2.226c0,0.738,0.078,1.476,0.226,2.215    c0.147,0.728,0.362,1.444,0.646,2.125c0.284,0.681,0.636,1.34,1.045,1.964c0.409,0.613,0.886,1.193,1.408,1.715    c0.522,0.535,1.102,1.001,1.726,1.42c0.613,0.409,1.272,0.762,1.965,1.046c0.681,0.284,1.396,0.499,2.124,0.646    c0.727,0.148,1.476,0.216,2.215,0.216c0.737,0,1.488-0.069,2.226-0.216c0.716-0.148,1.431-0.362,2.123-0.646    c0.683-0.284,1.341-0.637,1.955-1.046c0.625-0.419,1.204-0.885,1.726-1.42c2.124-2.111,3.329-5.042,3.329-8.018    C146.959,185.174,146.89,184.436,146.743,183.698z" data-original="#000000" class="active-path" fill="#000000"/>
	</g>
</g></g> </svg>
