<?xml version="1.0"?>
<svg xmlns="http://www.w3.org/2000/svg" id="Outline" height="512px" viewBox="0 0 512 512" width="512px" class=""><g><circle cx="336" cy="320" r="8" data-original="#000000" class="active-path" fill="#000000"/><circle cx="184" cy="320" r="8" data-original="#000000" class="active-path" fill="#000000"/><path d="m368.038 284.143c-9.311-12.258-16.038-21.115-16.038-28.143 0-14.334 9.965-32.619 19.6-50.3 10.4-19.08 20.221-37.1 20.4-53.614.138-12.994-12.426-41.878-16.17-50.19l-7.871-78.696a8 8 0 0 0 -7.959-7.2h-16a8 8 0 0 0 -7.96 7.2l-7.326 73.257c-16.759 2.106-31.494 11.051-44.687 19.06-10.573 6.421-20.558 12.483-28.027 12.483s-17.455-6.062-28.027-12.479c-13.193-8.009-27.929-16.954-44.687-19.06l-7.326-73.261a8 8 0 0 0 -7.96-7.2h-16a8 8 0 0 0 -7.96 7.2l-7.87 78.7c-3.744 8.312-16.308 37.2-16.17 50.19.176 16.512 10 34.534 20.4 53.614 9.638 17.682 19.6 35.967 19.6 50.3 0 7.25-6.084 16.149-14.5 28.468-21.509 31.451-57.5 84.099-57.5 203.528a8 8 0 0 0 8 8h328a8 8 0 0 0 8-8c0-119.651-40.04-172.363-63.962-203.857zm-213.592-86.1c-9-16.52-18.313-33.6-18.446-46.127-.08-7.484 8.886-30.582 15.278-44.594a8.007 8.007 0 0 0 .682-2.525l7.28-72.797h1.52l7.28 72.8a8 8 0 0 0 7.96 7.2c15.34 0 29.742 8.743 43.67 17.2 12.54 7.61 24.384 14.8 36.33 14.8s23.79-7.19 36.329-14.8c13.928-8.455 28.33-17.2 43.67-17.2a8 8 0 0 0 7.96-7.2l7.28-72.8h1.52l7.28 72.8a8.013 8.013 0 0 0 .682 2.526c6.392 14 15.358 37.1 15.279 44.593-.134 12.525-9.444 29.607-18.447 46.127-6.132 11.25-12.38 22.721-16.56 33.958h-169.987c-4.18-11.241-10.428-22.712-16.56-33.962zm20.908 49.957h161.291a52.616 52.616 0 0 0 -.646 8 29.593 29.593 0 0 0 1.143 8h-162.2a31.97 31.97 0 0 0 1.058-8 52.616 52.616 0 0 0 -.646-8zm208.566 232c-.808-48.856-9.034-92.9-24.508-131.01a8 8 0 1 0 -14.82 6.018c14.7 36.2 22.533 78.223 23.333 124.99h-216.154c.812-46.566 8.734-88.548 23.6-124.882l.007-.018c.01-.023.018-.046.027-.068a8 8 0 1 0 -14.8-6.062c-15.672 38.272-24 82.324-24.825 131.032h-31.723c1.553-108.833 34.67-157.281 54.646-186.5 3.337-4.882 6.356-9.308 8.914-13.5h177.559c2.89 4.29 6.32 8.817 10.12 13.821 22.168 29.179 58.917 77.554 60.641 186.179z" data-original="#000000" class="active-path" fill="#000000"/></g> </svg>
