<?xml version="1.0"?>
<svg xmlns="http://www.w3.org/2000/svg" height="512px" viewBox="0 -7 512.00101 512" width="512px"><g><path d="m502.011719 313.316406c-9.609375-11.480468-26.738281-18.460937-55.542969-22.632812-49.578125-7.171875-63.628906-17.476563-64.902344-18.488282-2.148437-2.367187-5.402344-2.960937-8.371094-1.734374-3.007812 1.246093-4.71875 4.449218-4.507812 7.699218 0 .046875.097656 5.046875-3.226562 10.285156-5.035157 7.941407-15.605469 12.832032-30.570313 14.144532-15.539063 1.363281-36-11.378906-59.167969-36.855469-21.121094-23.226563-39.496094-51.488281-47.34375-63.554687-10.25-15.761719-46.820312-70.6875-73.441406-110.632813-2.328125-3.496094-7.046875-4.441406-10.542969-2.113281-3.492187 2.328125-4.4375 7.050781-2.109375 10.546875 26.597656 39.914062 63.136719 94.792969 73.34375 110.488281 8.046875 12.375 26.890625 41.359375 48.84375 65.496094 26.863282 29.542968 51.007813 43.601562 71.75 41.773437 13.847656-1.214843 32.390625-5.867187 42.085938-21.148437 1.484375-2.339844 2.574218-4.648438 3.378906-6.8125 11.84375 5.488281 32.265625 11.570312 62.601562 15.957031 24.492188 3.546875 39.128907 9.058594 46.058594 17.339844 5.984375 7.152343 6.445313 16.808593 6.445313 29.671875 0 9.515625-3.34375 23.53125-7.578125 37.460937-13.734375 7.324219-30.167969 13.707031-48.898438 18.988281-4.042968 1.140626-6.394531 5.34375-5.253906 9.386719.945312 3.351563 3.992188 5.539063 7.3125 5.539063.683594 0 1.378906-.09375 2.070312-.289063 13.902344-3.921875 26.648438-8.445312 38.105469-13.511719-4.265625 12.015626-8.230469 21.917969-9.832031 25.835938-37.550781 28.804688-125.0625 46.445312-172.269531 46.445312-37.871094 0-46.375-21.175781-52.867188-43.011718 13.910157 1.589844 30.980469 2.476562 49.804688 2.476562 35.972656 0 78.304687-3.238281 116.9375-11.019531 4.117187-.828125 6.78125-4.839844 5.953125-8.957031-.828125-4.113282-4.828125-6.78125-8.953125-5.953125-67.316407 13.558593-136.324219 11.972656-168.226563 7.546875-36.914062-146.566406-87.6875-198.222656-123.976562-215.6875-9.460938-4.550782-20.453125-3.953125-29.398438 1.605468-9.007812 5.59375-14.449218 15.257813-14.566406 25.847657l-2.265625 214.175781h-17.648437c-3.34375-53.046875-9.109376-144.820312-11.660157-187.730469-1.808593-30.3125-8.355469-45.160156-14.6875-59.515625-7.039062-15.957031-13.6875-31.03125-13.6875-69.265625 0-35.617187 21.101563-65.90625 38.800781-85.042969 13.066407-14.125 26.285157-24.460937 33.726563-29.835937 6.804687 10.191406 21.046875 31.523437 37.730469 56.53125 2.332031 3.492187 7.054687 4.4375 10.546875 2.105469 3.492187-2.332032 4.4375-7.054688 2.105469-10.546875-23.414063-35.089844-42.015626-62.941407-42.015626-62.941407-2.285156-3.4218745-6.875-4.40625-10.367187-2.21875-.871094.546876-21.632813 13.679688-42.617187 36.285157-28.207032 30.390625-43.117188 63.46875-43.117188 95.664062 0 41.4375 7.617188 58.703125 14.980469 75.402344 6.054687 13.730469 11.773437 26.699219 13.421875 54.285156 3.6875 62.054688 14.089844 226.234375 14.195312 227.882813.253906 4.007812 3.574219 7.125 7.585938 7.125h29.878906c4.167969 0 7.558594-3.355469 7.605469-7.523438l2.695312-254.671875c.058594-5.363281 2.816407-10.257812 7.382813-13.09375 4.570312-2.839843 9.957031-3.136719 14.78125-.816406 19.738281 9.5 38.566406 27.878906 55.960937 54.628906 24.230469 37.261719 44.78125 89.722657 61.078125 155.921875.035156.152344.078125.300782.125.453125.667969 2.140625 1.320313 4.390625 2.011719 6.769531 6.746094 23.230469 16.941406 58.332032 68.746094 58.332032 49.023437 0 142.511719-18.15625 183.304687-50.984375.988282-.792969 1.757813-1.816407 2.246094-2.980469 1.0625-2.527344 26-62.25 26-91.097656 0-15.042969-.75-28.390625-9.988281-39.429688zm-444.6875 169.285156c-.269531-4.285156-.65625-10.355468-1.125-17.769531h16.527343l-.1875 17.769531zm0 0" data-original="#000000" class="active-path" fill="#000000"/></g> </svg>
