<?xml version="1.0"?>
<svg xmlns="http://www.w3.org/2000/svg" id="Capa_1" enable-background="new 0 0 512 512" height="512px" viewBox="0 0 512 512" width="512px"><g><path d="m60.89 337.3c-1.83-3.03-5.04-4.84-8.58-4.84-1.81 0-3.59.49-5.15 1.43-4.72 2.84-6.25 9-3.41 13.72 1.82 3.04 5.03 4.85 8.58 4.85 1.8 0 3.58-.5 5.14-1.43 4.72-2.84 6.25-8.99 3.42-13.71 0-.01 0-.01 0-.02z" data-original="#000000" class="active-path" fill="#000000"/><path d="m509.07 182.93c-1.86-1.86-4.44-2.93-7.07-2.93-17.03 0-33.65-2.71-49.36-7.94.24-1.65.36-3.34.36-5.06 0-16.149-10.995-29.771-25.891-33.79.572-2.005.891-4.081.891-6.21 0-16.542-13.458-30-30-30-10.718 0-20.135 5.653-25.442 14.13-17.268-25.544-26.558-55.623-26.558-87.13v-14c0-2.63-1.07-5.21-2.93-7.07s-4.44-2.93-7.07-2.93h-160c-2.63 0-5.21 1.07-7.07 2.93s-2.93 4.44-2.93 7.07v14c0 31.507-9.29 61.586-26.558 87.13-5.307-8.477-14.724-14.13-25.442-14.13-16.542 0-30 13.458-30 30 0 2.141.273 4.229.77 6.244-14.834 4.061-25.77 17.651-25.77 33.756 0 1.72.12 3.41.36 5.06-15.71 5.23-32.33 7.94-49.36 7.94-2.63 0-5.21 1.07-7.07 2.93s-2.93 4.44-2.93 7.07c0 19.99 1.97 40.06 5.86 59.63 3.83 19.27 9.56 38.27 17.03 56.46 1.55 3.77 5.18 6.21 9.26 6.2 1.3 0 2.57-.25 3.79-.75 5.1-2.09 7.55-7.95 5.45-13.05-12.93-31.5-20.07-64.74-21.23-98.78 16.41-.93 32.39-4.1 47.72-9.44 3.718 4.17 8.423 7.44 13.741 9.459-1.685 4.095-2.621 8.575-2.621 13.271 0 15.215 9.763 28.188 23.35 32.999-2.149 4.903-3.35 10.313-3.35 16.001 0 22.056 17.944 40 40 40 4.771 0 9.348-.843 13.594-2.382 13.711 18.007 31.885 28.477 54.203 31.215 4.185 23.37 24.648 41.167 49.203 41.167 24.579 0 45.058-17.832 49.215-41.235 22.143-2.843 40.184-13.334 53.803-31.292 4.355 1.63 9.065 2.527 13.982 2.527 22.056 0 40-17.944 40-40 0-5.688-1.201-11.098-3.35-16.001 13.587-4.811 23.35-17.784 23.35-32.999 0-4.696-.936-9.176-2.621-13.271 5.318-2.018 10.023-5.288 13.741-9.459 15.33 5.34 31.31 8.51 47.72 9.44-3.34 98.47-58.62 189.93-144.27 238.67l-91.57 52.11-91.57-52.11c-29.99-17.07-56.36-39.16-78.4-65.66-1.9-2.3-4.71-3.61-7.69-3.61-2.33 0-4.6.82-6.39 2.31-2.05 1.71-3.32 4.11-3.56 6.77-.25 2.66.56 5.26 2.27 7.31 11.6 13.97 24.54 26.97 38.44 38.65 14.11 11.85 29.4 22.49 45.44 31.61l96.51 54.93c1.51.86 3.22 1.31 4.95 1.31s3.44-.45 4.95-1.31l96.51-54.93c23.57-13.41 45.26-29.9 64.45-49 18.88-18.79 35.24-40 48.65-63.05 13.4-23.04 23.74-47.76 30.73-73.46 7.11-26.12 10.71-53.13 10.71-80.25 0-2.63-1.07-5.21-2.93-7.07zm-76.41-19.11c.22 1.02.34 2.09.34 3.18 0 6.6-4.28 12.21-10.21 14.21-1.5.51-3.11.79-4.79.79-7.35 0-13.48-5.31-14.76-12.3-.16-.87-.24-1.78-.24-2.7 0-6.77 4.52-12.51 10.69-14.36 1.37-.42 2.81-.64 4.31-.64 7.18 0 13.2 5.07 14.66 11.82zm-44.66-36.82c0-5.514 4.486-10 10-10s10 4.486 10 10-4.486 10-10 10c-1.76 0-3.414-.461-4.852-1.263-.487-.474-.975-.944-1.458-1.427-.837-.838-1.66-1.685-2.476-2.538-.774-1.419-1.214-3.045-1.214-4.772zm-274-10c5.514 0 10 4.486 10 10 0 1.727-.44 3.352-1.214 4.771-.816.853-1.639 1.701-2.476 2.539-.485.482-.976.955-1.464 1.431-1.437.8-3.088 1.259-4.846 1.259-5.514 0-10-4.486-10-10s4.486-10 10-10zm-34.66 46.82c1.46-6.75 7.48-11.82 14.66-11.82 1.5 0 2.94.22 4.31.64 6.17 1.85 10.69 7.59 10.69 14.36 0 .92-.08 1.83-.24 2.7-1.28 6.99-7.41 12.3-14.76 12.3-1.68 0-3.29-.28-4.79-.79-5.93-2-10.21-7.61-10.21-14.21 0-1.09.12-2.16.34-3.18zm34.66 34.18c8.271 0 15 6.729 15 15s-6.729 15-15 15-15-6.729-15-15 6.729-15 15-15zm5 64c0-11.028 8.972-20 20-20s20 8.972 20 20-8.972 20-20 20-20-8.972-20-20zm137 90c-16.542 0-30-13.458-30-30s13.458-30 30-30 30 13.458 30 30-13.458 30-30 30zm48.679-41.376c-5.166-22.105-25.023-38.624-48.679-38.624-23.686 0-43.564 16.561-48.698 38.708-15.67-2.375-28.269-9.769-38.19-22.422 6.149-7.036 9.888-16.23 9.888-26.286 0-19.119-13.487-35.139-31.444-39.069.934-3.151 1.444-6.482 1.444-9.931 0-14.941-9.414-27.719-22.62-32.731 1.684-4.095 2.62-8.574 2.62-13.269 0-4.05-.69-7.94-1.96-11.56 1.472-1.309 9.585-8.475 11.557-11.295 22.24-23.789 37.202-52.825 43.706-84.145h28.697c5.51 0 10-4.49 10-10s-4.49-10-10-10h-25.727c.478-5.293.727-20 .727-20h140s.249 14.707.727 20h-25.727c-5.51 0-10 4.49-10 10s4.49 10 10 10h28.697c6.504 31.319 21.466 60.355 43.706 84.145 1.972 2.82 10.085 9.986 11.557 11.295-1.27 3.62-1.96 7.51-1.96 11.56 0 4.695.936 9.174 2.62 13.269-13.206 5.012-22.62 17.79-22.62 32.731 0 3.449.51 6.781 1.444 9.931-17.957 3.93-31.444 19.95-31.444 39.069 0 9.909 3.63 18.981 9.619 25.975-9.854 12.706-22.371 20.175-37.94 22.649zm68.321-28.624c-11.028 0-20-8.972-20-20s8.972-20 20-20 20 8.972 20 20-8.972 20-20 20zm25-54c-8.271 0-15-6.729-15-15s6.729-15 15-15 15 6.729 15 15-6.729 15-15 15z" data-original="#000000" class="active-path" fill="#000000"/><circle cx="256" cy="50" r="10" data-original="#000000" class="active-path" fill="#000000"/></g> </svg>
