<?xml version="1.0"?>
<svg xmlns="http://www.w3.org/2000/svg" id="Layer_1" enable-background="new 0 0 493.37 493.37" height="512px" viewBox="0 0 493.37 493.37" width="512px"><g><path d="m184.066 196.067v-5.107c0-8.837 7.163-16 16-16s16 7.163 16 16v5.107c0 8.837-7.163 16-16 16s-16-7.163-16-16zm93.238 16c8.837 0 16-7.163 16-16v-5.107c0-8.837-7.163-16-16-16s-16 7.163-16 16v5.107c0 8.837 7.163 16 16 16zm158.381 259.235v6.068c0 8.837-7.163 16-16 16s-16-7.163-16-16v-6.068c0-48.891-39.775-88.667-88.667-88.667h-15.331c-7.017 27.134-31.706 47.235-61.002 47.235s-53.985-20.101-61.002-47.235h-15.331c-48.892 0-88.667 39.776-88.667 88.667v6.068c0 8.837-7.163 16-16 16s-16-7.163-16-16v-6.068c0-66.536 54.131-120.667 120.667-120.667h152.666c66.536 0 120.667 54.131 120.667 120.667zm-170.464-88.667h-53.073c12.289 20.258 40.772 20.279 53.073 0zm186.464-243.307c0 8.837-7.163 16-16 16h-53.329v38.411c0 77.748-63.252 141-141 141-90.414 0-146.342-68.709-146.342-141v-52.739c0-72.492 56.101-141 146.342-141 71.764 0 131.174 53.891 139.895 123.328h54.434c8.837 0 16 7.163 16 16zm-323.231-16h220.461c-8.469-51.728-53.473-91.328-107.559-91.328h-5.342c-54.086 0-99.09 39.6-107.56 91.328zm221.902 32h-223.342v38.411c0 60.103 48.897 109 109 109h5.342c60.103 0 109-48.897 109-109zm-112.303-60.817c6.237 4.346 14.881 3.737 20.445-1.828 6.249-6.248 6.249-16.379 0-22.627l-9-9c-6.248-6.249-16.379-6.249-22.627 0l-8.5 8.5c-6.249 6.248-6.249 16.379 0 22.627 5.34 5.341 13.517 6.118 19.682 2.328z" data-original="#000000" class="active-path" fill="#000000"/></g> </svg>
