<?xml version="1.0"?>
<svg xmlns="http://www.w3.org/2000/svg" height="512px" viewBox="-16 0 480 480" width="512px"><g><path d="m224 280c-2.121094 0-4.15625-.84375-5.65625-2.34375l-56.558594-56.558594c-15.640625-15.617187-15.65625-40.957031-.042968-56.59375 15.617187-15.636718 40.957031-15.65625 56.59375-.039062l5.664062 5.664062 5.601562-5.601562c15.625-15.625 40.964844-15.625 56.589844 0 15.628906 15.628906 15.628906 40.964844 0 56.59375l-56.558594 56.558594c-1.5 1.484374-3.523437 2.320312-5.632812 2.320312zm-33.917969-111.199219c-9.71875-.011719-18.480469 5.835938-22.199219 14.8125-3.71875 8.972657-1.660156 19.304688 5.214844 26.171875l50.902344 50.902344 50.902344-50.902344c9.363281-9.390625 9.363281-24.582031 0-33.96875-9.515625-9.078125-24.488282-9.078125-34.007813 0l-11.238281 11.238282c-3.125 3.125-8.1875 3.125-11.3125 0l-11.28125-11.277344c-4.515625-4.476563-10.621094-6.988282-16.980469-6.976563zm0 0" data-original="#000000" class="active-path" fill="#000000"/><path d="m443.574219 48.839844-96-48c-1.148438-.433594-2.351563-.714844-3.574219-.839844h-56c-4.417969 0-8 3.582031-8 8v2.457031l-8.246094 3.085938c-30.785156 11.5625-64.71875 11.5625-95.503906 0l-8.25-3.085938v-2.457031c0-4.417969-3.582031-8-8-8h-56c-1.222656.113281-2.421875.382812-3.574219.800781l-96 48c-2.726562 1.359375-4.441406 4.152344-4.425781 7.199219v80c0 4.417969 3.582031 8 8 8h83.304688l-11.304688 327.71875c-.074219 2.171875.734375 4.277344 2.242188 5.839844 1.507812 1.5625 3.585937 2.441406 5.757812 2.441406h111.023438c3.703124 0 6.921874-2.535156 7.785156-6.136719l16.992187-70.757812 16.113281 70.671875c.828126 3.640625 4.0625 6.222656 7.796876 6.222656h112.289062c2.171875 0 4.25-.878906 5.757812-2.441406 1.507813-1.5625 2.316407-3.667969 2.242188-5.839844l-11.3125-327.71875h83.3125c4.417969 0 8-3.582031 8-8v-80c0-3.03125-1.710938-5.804688-4.425781-7.160156zm-272.941407-20.3125c17.0625 6.402344 35.140626 9.683594 53.367188 9.679687 18.230469.003907 36.308594-3.277343 53.375-9.679687l2.625-.984375v12.457031c0 30.929688-25.070312 56-56 56s-56-25.070312-56-56v-12.457031zm-138.632812 99.472656h-16v-67.054688l16-8zm59.855469 0h-43.855469v-83.054688l47.542969-23.769531zm100.863281 336h-96.4375l.550781-16h99.734375zm54.082031-32-15-65.777344c-.824219-3.621094-4.035156-6.199218-7.753906-6.222656-3.699219.027344-6.914063 2.550781-7.824219 6.136719l-15.816406 65.863281h-103.023438l14.34375-416h40.273438v24c0 39.765625 32.234375 72 72 72s72-32.234375 72-72v-24h40.273438l14.34375 416zm7.296875 32-3.648437-16h100.75l.554687 16zm145.902344-336h-43.863281l-3.679688-106.824219 47.542969 23.769531zm32 0h-16v-75.054688l16 8zm0 0" data-original="#000000" class="active-path" fill="#000000"/></g> </svg>
