<?xml version="1.0"?>
<svg xmlns="http://www.w3.org/2000/svg" xmlns:xlink="http://www.w3.org/1999/xlink" version="1.1" id="Capa_1" x="0px" y="0px" viewBox="0 0 365.629 365.629" style="enable-background:new 0 0 365.629 365.629;" xml:space="preserve" width="512px" height="512px"><g><g>
	<g>
		<g>
			<path d="M329.501,77.422c-6.8-25.6-23.2-48.8-47.6-63.2c-24.8-14.4-52.8-17.6-78.4-10.8c-25.6,6.8-48.8,23.2-63.2,47.6l-36,61.2     l-40,68l-8,14l-9.2,16l-1.2,2c-13.2,24-16,51.2-9.6,76c6.8,25.6,23.2,48.8,47.6,63.2l2,1.2c18,10,38,14,57.2,12.8     c20.4-1.6,40.4-9.2,56.8-22l0.4-0.4l9.6-7.6l-0.8-0.4c1.6-1.6,3.2-3.2,4.4-4.8c4-4.8,8-10,11.2-15.6l21.6-37.2     c0-0.4,0.4-0.4,0.4-0.8l70.8-120.8C332.701,131.422,335.901,103.022,329.501,77.422z M141.901,347.822     c-16.4,1.2-33.6-2.4-49.2-11.6c-20.4-12-34-30.8-39.2-52c-5.6-21.2-2.8-44.4,8.8-64.8l1.2-2v-0.4l1.2,2l0.4,0.8v0.4l0.8,1.2     l0.8,1.2l0.8,1.2l0.4,0.4l0.4,0.8l0.4,0.8l0.4,0.8v0.4l0.8,1.2l0.8,1.2l0.4,0.8l0.4,0.4l0.4,0.8l0.8,0.8l0.4,0.8v0.4     c0.8,0.8,1.2,2,2,2.8l0.4,0.4l0.4,0.8l0.8,1.2l0.4,0.8v0.4l0.8,1.2l0.8,1.2l0.8,0.8l0.8,1.2l0.4,0.4l0.4,0.4     c0.8,1.2,1.6,2,2.4,3.2l0.8,0.8l0.4,0.4l0.4,0.8l0.4,0.4l0.4,0.4l0.8,0v0.4l0.8,1.2l0.8,1.2l0.8,0.8l0.4,0.4l0.4,0.8l0.4,0.4     l0.4,0.4l0.8,0.8v0.4l0.8,1.2l0.8,1.2l0.8,0.8l0.4,0.4l0.4,0.8l0.4,0.4l0.4,0.4l0.8,0.8v0.4l0.8,0.8l0.8,1.2l0.8,0.8l0.4,0.4     l0.4,0.8l0.4,0.4l0.4,0.4l0.8,0.8l0.8,0.8l0.8,0.8l0.8,0.8l0.4,0.4l0.4,0.4l0.4,0.4l0.4,0.4l0.8,0.8l0.8,0.8l0.8,0.8l0.8,0.8     l0.4,0.4l0.4,0.4l0.4,0.4l0.4,0.4l0.8,0.8l0.8,0.8l0.8,0.8l0.8,0.8l0.8,0.8l0.4,0.4l1.2,1.2l0.8,0.8l0.4,0.4l0.4,0.4l0.4,0.4     l0.4,0.4l0.4,0.4l0.4,0.4l0.8,0.8l0.8,0.8l0.4,0.4l0.8,0.8l0.8,0.8l0.8,0.8l0.8,0.8l0.8,0.8l0.8,0.8l0.8,0.8l0.4,0.4l0.8,0.8     l0.4,0.4l0.8,0.4l0.4,0.4l0.8,0.8l0.4,0.4l0.8,0.4l0.4,0.4l0.8,0.8l0.4,0.4l0.4,0.4l0.8,0.8l0.8,0.8l0.8,0.8l1.2,0.8l0.8,0.8     l0.8,0.8h0.4l0.8,0.8l3.2,4.401l0.4,0.4l0.8,0.4c0.8,0.4,1.2,1.2,2,1.6l0.8,0.4l0.4,0.4l0.8,0.4l0.4,0.4l0.8,0.8l0.4,0.4l2,1.6     l1.2,0.8l1.2,0.8l0.8,0.8l0.8,0.8h0.4l0.8,0.8c0.8,0.4,1.6,1.2,2,1.6l0.4,0.4l0.4,0.4l0.8,0.4l0.4,0.4c0.8,0.4,1.2,0.8,2,1.6     l0.8,0.8h0.4l0.8,0.8l2,1.6l1.2,0.8l1.2,0.8h0.4l0.8,0.4l0.4,0.4l0.8,0.4l0.4,0.4l0.8,0.4l0.4,0.4l0.4,0.4l0.8,0.4l0.4,0.4l2,1.2     l0.8,0.4h0.4C167.101,343.022,154.701,346.622,141.901,347.822z M209.901,305.822c-2.8,4.4-5.6,8.8-9.2,12.8     c-2,2.4-4.4,4.8-6.8,6.8c-24.4-14.4-47.2-33.6-67.2-54.8l-0.8-1.2l-0.8-0.8l-0.8-0.8l-0.8-0.8l-0.4-0.4l-0.8-0.8l-0.4-0.4     l-0.8-0.8l-0.4-0.4l-0.4-0.8l-1.6-1.2l-0.4-0.8l-0.4-0.4l-0.4-0.4l-0.4-0.4l-0.4-0.4l-0.4-0.8l-0.4-0.4l-0.8-0.8l-0.8-0.8     l-0.4-0.4l-0.4-0.4l-0.8-0.8v-0.4l-0.8-0.8l-0.8-0.8l-0.8-1.2l-0.8-1.2l-0.8-1.2l-0.8-1.2l-1.2-1.2v-0.4l-0.8-0.8l-0.8-1.2     l-0.4-0.4l-0.4-0.8l-0.8-0.8h-0.4l-0.4-0.4l-0.4-0.8l-0.4-0.4l-0.4-0.4l-0.8-0.8l-0.4-1.2l-0.4-0.4l-0.4-0.8l-0.4-0.4l-0.8-0.8     l-0.4-0.4l-0.8-0.8v-0.4l-0.8-0.8l-0.8-1.2l-0.8-1.2l-0.8-1.2l-0.8-1.2l-0.8-1.2l-0.8-0.8v-0.4l-0.4-0.8l-0.4-0.4l-0.4-0.8     l-0.4-0.4l-0.4-0.8l-1.6-2l-0.4-0.4l-0.4-0.4l-0.4-1.2v-0.4l-0.4-0.8l-0.4-0.4l-0.4-0.8l-0.4-0.4l-0.8-1.2l-0.4-0.8v-0.4     l-0.8-1.2l-0.8-1.2l-0.8-1.2l-0.8-1.2l-0.8-1.2l-0.4-1.2v-0.4l-0.8,0v-0.4l-0.4-0.8l-0.8-1.2l-0.4-0.4l-0.4-0.8v-0.4l-0.4-0.8     l-0.4-0.4l-0.4-0.4l-0.8-1.2v-0.8l-0.4-0.4l36.4-62.4c1.2,2.8,2.8,5.6,4,8l0.4,1.2l0.4,1.2c0.8,1.2,1.2,2.4,2,3.6l0.4,1.2     l0.8,1.2l0.4,0.8c0.4,0.8,0.8,1.6,1.2,2.4l0.4,0.8v0.4l0.8,1.2l0.8,1.2l0.8,1.2l1.2,2l0.4,1.2l0.8,1.2l0.8,1.2l0.4,0.4l0.4,0.8     l0.4,0.4l0.4,0.4l0.4,0.4l0.4,0.8l0.8,1.2l0.8,1.2l0.8,0.8l0.4,0.4l0.8,0.8v0.4l0.4,0.4l0.8,0.8v0.4l0.8,1.2l0.8,1.2v0.4l0.4,0.8     l0.4,0.4l0.4,0.8l0.4,0.8l0.4,0.4l0.8,1.2l0.8,1.2l0.8,0.8l0.4,0.4c0.4,0.8,1.2,1.6,1.6,2.4v0.4l0.8,1.2l0.8,1.2v0.4l0.8,0.8     l0.4,0.4v0.4l0.8,1.2l0.4,0.4l0.8,0.8l0.8,1.2l0.8,1.2l0.4,0.4c0.8,1.2,2,2.4,2.8,3.6l0.4,0.4l0.8,1.2l0.8,0.8l0.4,0.4l0.4,0.8     l0.4,0.8l0.4,0.4l0.8,0.8v0.4l0.8,1.2l0.8,1.2l0.8,1.2v0.4l0.8,0.8l0.4,0.4l0.8,0.8l0.4,0.4l0.8,0.8l0.4,0.4l0.4,0.8l0.4,0.8     l0.4,0.4l0.8,0.8l0.4,0.4l0.8,0.8l0.4,0.4l0.8,0.8v0.4l0.8,1.2l1.2,1.2l1.2,1.2l0.8,1.2l0.8,0.8l0.8,1.2l0.8,0.8l0.4,0.4l0.4,0.4     l0.4,0.8l0.4,0.4l0.8,1.2l0.8,0.8l0.4,0.4l0.4,0.4l0.8,0.8l0.4,0.4l0.8,0.8l1.2,1.2l1.2,1.2l0.8,0.8l0.8,0.8l0.4,0.4l0.8,0.8     l0.4,0.4l0.8,0.8l0.4,0.4l0.8,0.4l0.4,0.4l0.4,0.4l0.8,0.8l0.4,0.4l0.8,0.8l0.4,0.4l0.8,0.8l0.4,0.4l0.8,0.8l1.2,1.2l1.2,1.2     l1.2,0.8l1.2,1.2l0.4,0.4l0.8,0.8l0.4,0.4l0.8,0.8l0.4,0.4l0.8,0.4l0.4,0.4l0.4,0.4l0.8,0.4l0.4,0.4l0.8,0.8l0.4,0.4l1.2,0.8     l1.2,0.8l0.4,0.4l0.8,0.4l1.2,0.8l1.2,0.8l1.2,0.8l0.8,0.8h0.4l0.4,0.4l0.8,0.8c1.2,0.8,2.4,2,3.6,2.8l0.8,0.8l0.4,0.4l0.8,0.8     h0.4l1.2,0.8l1.2,0.8l1.2,0.8l1.2,0.8l1.2,0.8l1.2,0.8L209.901,305.822z M303.101,147.022l-66.4,112.8l-0.8-0.8l-1.2-0.8     l-1.2-0.8l-1.2-0.8h-0.4l-0.8-0.8l-0.4-0.4l-0.8-0.4l-0.4-0.4l-0.8-0.4l-0.8-0.8l-0.8-0.4l-0.4-0.8l-0.4-0.4l-0.8-0.8h-0.8     l-1.2-0.8l-1.2-0.8l-1.2-0.8l-0.8-1.6l-1.2-0.8l-0.4-0.4l-0.8-0.4l-0.4-0.4l-0.4-0.4l-0.8-0.8l-1.2-0.8l-0.4-0.4l-0.8-0.8h-0.4     l-0.8-0.8l-1.2-0.8l-0.8-1.2l-0.8-0.8l-0.4-0.4l-0.8-0.8l-0.8-0.8l-0.4-0.4l-0.4-0.4l-0.8-0.4l-0.8-0.8l-0.8-0.8l-0.8-0.8     l-0.4-0.4l-0.8-0.8l-1.2-0.8l-1.2-0.8l-0.8-0.8h-0.4l-0.8-0.8l-0.4-1.2h-0.4l-0.8-0.8l-0.4-0.4l-0.4-0.4l-0.4-0.4l-0.8-0.8     l-0.4-0.4l-0.8-0.8l-0.4-0.4l-0.8-0.8l-0.8-0.8l-0.8-1.2l-0.8-0.8l-0.8-0.8l-0.4-0.4l-0.8-0.8l-1.2-1.2l-0.4-0.8l-0.4-0.4     l-0.4-0.4v-0.4l-0.8-0.8l-0.8-0.8l-0.4-0.4l-1.2-0.8l-0.8-0.8l-0.8-1.2l-0.8-1.2l-0.8-0.8l-1.6-2l-0.4-0.4l-0.4-0.4l-1.6-1.2     l-0.4-0.8l-0.8-0.8l-0.4-0.4l-0.8-0.8l-1.2-1.2l-0.8-1.2l-0.8-1.2l-0.8-1.2l-0.8-1.2l-0.8-1.2l-0.8-0.4l-0.4-0.4l-0.4-0.4     l-0.8-1.2l-0.8-0.8l-0.4-0.4l-0.8-0.8l-0.4-0.4v-0.8l-0.4-0.4l-0.4-0.8l-0.4-0.4l-2-2.8v-0.4l-0.4-0.4l-0.8-1.2l-0.8-0.8     l-0.4-0.4l-0.4-0.8l-0.4-0.4l-0.8-0.8v-0.4l-0.8-1.2v-0.4l-0.8-0.8l-0.8-1.2v-0.4l-0.8-1.2l-0.8-1.2l-0.8-1.2l-0.8-1.2l-0.8-1.2     v-0.4l-0.8-1.2v-0.4l-0.8-0.8l-0.8,0l-0.4-0.8l-0.4-0.4l-0.4-0.8l-0.4-0.4l-0.4-0.8l-0.4-0.4l-0.4-0.8l-0.4-0.4l-0.8-1.6     l-0.4-0.8l-0.4-0.8l-0.4-0.8l-0.4-0.4l-0.4-0.4l-0.4-0.8l-0.4-0.4l-0.4-0.8l-0.8-1.6v-0.4v-0.4l-0.4-1.2v-0.4l-0.8-1.2l-0.8-1.2     l-0.8-1.2l-0.8-1.2l-0.8-1.2l-0.8-1.2l-0.8-1.2l-0.4-1.2v-0.4l-0.4-1.2v-0.4l-1.2-0.4v-0.4v-0.4l-0.4-0.8l-0.4-0.8l-0.4-0.4     l-0.4-0.8v-0.4l-0.4-0.8l-0.4-0.8v-0.4l-0.4-0.8l-0.4-0.4v-0.4l-0.4-1.2l-1.2-1.2l-0.4-0.4l-0.4-0.8v-0.4v-0.4l-0.4-0.8l-0.4-1.2     v-0.4l-0.4-1.2v-0.4l-0.4-1.2l-1.2-0.8l-0.4-1.2l33.6-57.2c12-20.4,30.8-34,52-39.6s44.4-2.8,64.8,8.8c20.4,12,34,30.8,39.6,52     C317.501,103.422,315.101,126.622,303.101,147.022z" data-original="#000000" class="active-path" fill="#000000"/>
			<circle cx="199.901" cy="92.222" r="8.8" data-original="#000000" class="active-path" fill="#000000"/>
			<path d="M225.901,32.222c-21.2,0-40.4,8.8-54.4,22.4c-14,14-22.4,33.2-22.4,54.4s8.8,40.4,22.4,54.4c14,14,33.2,22.4,54.4,22.4     c21.2,0,40.4-8.8,54.4-22.4c14-14,22.4-33.2,22.4-54.4s-8.8-40.4-22.4-54.4C266.301,41.022,247.101,32.222,225.901,32.222z      M267.501,150.622c-10.8,10.8-25.2,17.2-41.6,17.2c-16.4,0-30.8-6.4-41.6-17.2c-10.8-10.8-17.2-25.2-17.2-41.6     s6.4-30.8,17.2-41.6c10.8-10.8,25.2-17.2,41.6-17.2c16.4,0,30.8,6.4,41.6,17.2c10.8,10.8,17.2,25.2,17.2,41.6     S278.301,140.222,267.501,150.622z" data-original="#000000" class="active-path" fill="#000000"/>
			<path d="M235.901,127.822c-4.4-2.4-9.6-1.2-12.4,3.2c-1.2,2-2.8,3.2-4.8,3.6c-2,0.4-4,0.4-6-0.8s-3.2-2.8-3.6-4.8     c-0.4-2-0.4-4,0.8-6c2.4-4.4,1.2-9.6-3.2-12.4c-4.4-2.4-9.6-1.2-12.4,3.2c-3.6,6-4.4,13.2-2.8,19.6c1.6,6.4,5.6,12,12,15.6     c6,3.6,13.2,4.4,19.6,2.8c6.4-1.6,12-5.6,15.6-12C241.501,135.822,239.901,130.222,235.901,127.822z" data-original="#000000" class="active-path" fill="#000000"/>
			<path d="M258.701,116.622c-4-2.4-9.6-1.2-12,3.2c-2.4,4-1.2,9.6,3.2,12c4,2.4,9.6,1.2,12-3.2     C263.901,124.222,262.701,119.022,258.701,116.622z" data-original="#000000" class="active-path" fill="#000000"/>
		</g>
	</g>
</g></g> </svg>
