<?xml version="1.0"?>
<svg xmlns="http://www.w3.org/2000/svg" id="Layer_3" enable-background="new 0 0 64 64" height="512px" viewBox="0 0 64 64" width="512px"><g><g><path d="m2 37.393c.041 0 .083-.002.124-.008l2.027-.253.859 6.01c.07.492.492.858.99.858h28c5.265 0 9.976-3.14 12-8l1.802-4.324 2.322-.29c.5-.062.876-.488.876-.992v-4c0-.287-.123-.56-.338-.75s-.501-.277-.786-.243l-14.876 1.859v-1.26h4c1.103 0 2-.897 2-2v-2c0-.552-.447-1-1-1h-5v-2c0-2.757-2.243-5-5-5h-2c-2.757 0-5 2.243-5 5v9.76l-7.057.882c-.279-2.799-1.938-5.258-4.495-6.537-.312-.155-.681-.138-.978.046l-1.059.662-1.579-2.368c-.296-.444-.887-.58-1.347-.303l-5 3c-.234.141-.401.371-.461.638s-.008.546.144.774l1.605 2.408-.303.19c-.292.183-.47.503-.47.848v2.385l-.124.016c-.5.062-.876.488-.876.992v4c0 .287.123.56.338.75.183.162.42.25.662.25zm42.154-2.163c-1.714 4.113-5.699 6.77-10.154 6.77h-27.133l-.731-5.116 39.38-4.922zm4.846-5.72-46 5.75v-1.984l46-5.75zm-19-6.51h6v1h-7c-.552 0-1-.449-1-1v-4h1v3c0 .552.447 1 1 1zm9 1h-1v-1h1zm-14-5c0-1.654 1.346-3 3-3h2c1.654 0 3 1.346 3 3v2h-2v-3c0-.552-.447-1-1-1h-3c-.553 0-1 .448-1 1v5c0 1.654 1.346 3 3 3h4v1.51l-8 1zm-21.586 6.318 3.283-1.97 1.017 1.526-3.244 2.028zm.586 4.236 7.031-4.395c1.678 1.029 2.751 2.771 2.932 4.73l-9.963 1.246z" data-original="#000000" class="active-path" fill="#000000"/><path d="m6 51c1.641 0 3.088-.806 4-2.031.912 1.225 2.359 2.031 4 2.031s3.088-.806 4-2.031c.912 1.225 2.359 2.031 4 2.031s3.088-.806 4-2.031c.912 1.225 2.359 2.031 4 2.031 2.757 0 5-2.243 5-5h-2c0 1.654-1.346 3-3 3s-3-1.346-3-3h-2c0 1.654-1.346 3-3 3s-3-1.346-3-3h-2c0 1.654-1.346 3-3 3s-3-1.346-3-3h-2c0 1.654-1.346 3-3 3s-3-1.346-3-3h-2c0 2.757 2.243 5 5 5z" data-original="#000000" class="active-path" fill="#000000"/><path d="m61 53c0 1.654-1.346 3-3 3s-3-1.346-3-3h-2c0 1.654-1.346 3-3 3s-3-1.346-3-3h-2c0 1.654-1.346 3-3 3s-3-1.346-3-3h-2c0 1.654-1.346 3-3 3s-3-1.346-3-3h-2c0 2.757 2.243 5 5 5 1.641 0 3.088-.806 4-2.031.912 1.225 2.359 2.031 4 2.031s3.088-.806 4-2.031c.912 1.225 2.359 2.031 4 2.031s3.088-.806 4-2.031c.912 1.225 2.359 2.031 4 2.031 2.757 0 5-2.243 5-5z" data-original="#000000" class="active-path" fill="#000000"/><path d="m22 61c-1.654 0-3-1.346-3-3h-2c0 1.654-1.346 3-3 3s-3-1.346-3-3h-2c0 1.654-1.346 3-3 3s-3-1.346-3-3h-2c0 2.757 2.243 5 5 5 1.641 0 3.088-.806 4-2.031.912 1.225 2.359 2.031 4 2.031s3.088-.806 4-2.031c.912 1.225 2.359 2.031 4 2.031 2.757 0 5-2.243 5-5h-2c0 1.654-1.346 3-3 3z" data-original="#000000" class="active-path" fill="#000000"/><path d="m56.293 31.293-2.156 2.157c-1.378 1.377-2.137 3.209-2.137 5.157 0 1.789.654 3.51 1.843 4.846l1.819 2.047-3.409 3.835c-.262.294-.326.715-.165 1.074s.518.591.912.591h8c.394 0 .751-.231.912-.59s.097-.78-.165-1.074l-3.409-3.836 1.819-2.047c1.189-1.336 1.843-3.057 1.843-4.846 0-1.948-.759-3.78-2.137-5.157l-2.156-2.157c-.375-.375-1.039-.375-1.414 0zm2.48 17.707h-3.547l1.774-1.995zm-.11-6.876-1.663 1.871-1.663-1.871c-.862-.97-1.337-2.219-1.337-3.517 0-.144.03-.282.041-.424.892.524 1.917.817 2.959.817s2.067-.293 2.959-.818c.011.143.041.281.041.425 0 1.298-.475 2.547-1.337 3.517zm.708-5.971c-.673.533-1.509.847-2.371.847s-1.698-.314-2.371-.847c.245-.465.539-.907.922-1.29l1.449-1.448 1.449 1.449c.383.382.677.824.922 1.289z" data-original="#000000" class="active-path" fill="#000000"/><path d="m41.61 19.136c3.075-5.636 8.971-9.136 15.39-9.136v-2c-7.151 0-13.721 3.9-17.146 10.178l-.732 1.343 1.756.957z" data-original="#000000" class="active-path" fill="#000000"/><path d="m56 12h2v2h-2z" data-original="#000000" class="active-path" fill="#000000"/><path d="m56 16h2v2h-2z" data-original="#000000" class="active-path" fill="#000000"/><path d="m56 20h2v2h-2z" data-original="#000000" class="active-path" fill="#000000"/><path d="m56 24h2v2h-2z" data-original="#000000" class="active-path" fill="#000000"/><path d="m56 28h2v2h-2z" data-original="#000000" class="active-path" fill="#000000"/><path d="m29 13c3.309 0 6-2.691 6-6h3v-2h-3.35c-.826-2.327-3.043-4-5.65-4-3.309 0-6 2.691-6 6s2.691 6 6 6zm0-2c-1.075 0-2.047-.431-2.766-1.123 1.019-.315 1.766-1.256 1.766-2.377 0-.276.225-.5.5-.5h4.5c0 2.206-1.794 4-4 4zm0-8c1.474 0 2.75.81 3.444 2h-3.944c-1.379 0-2.5 1.122-2.5 2.5 0 .276-.225.5-.5.5h-.358c-.084-.322-.142-.653-.142-1 0-2.206 1.794-4 4-4z" data-original="#000000" class="active-path" fill="#000000"/></g></g> </svg>
