<?xml version="1.0"?>
<svg xmlns="http://www.w3.org/2000/svg" xmlns:xlink="http://www.w3.org/1999/xlink" version="1.1" id="Capa_1" x="0px" y="0px" viewBox="0 0 166 166" style="enable-background:new 0 0 166 166;" xml:space="preserve" width="512px" height="512px"><g><path d="M163.5,112.72c-1.381,0-2.5-1.119-2.5-2.5V7.947H5v102.215c0,1.381-1.119,2.5-2.5,2.5s-2.5-1.119-2.5-2.5V5.447  c0-1.381,1.119-2.5,2.5-2.5h161c1.381,0,2.5,1.119,2.5,2.5V110.22C166,111.601,164.881,112.72,163.5,112.72z" data-original="#000000" class="active-path" fill="#000000"/><path d="M25.5,163.053h-23c-1.381,0-2.5-1.119-2.5-2.5V110.22c0-1.381,1.119-2.5,2.5-2.5h23c1.381,0,2.5,1.119,2.5,2.5v50.333  C28,161.934,26.881,163.053,25.5,163.053z M5,158.053h18V112.72H5V158.053z" data-original="#000000" class="active-path" fill="#000000"/><path d="M48.5,163.053h-23c-1.381,0-2.5-1.119-2.5-2.5V110.22c0-1.381,1.119-2.5,2.5-2.5h23c1.381,0,2.5,1.119,2.5,2.5v50.333  C51,161.934,49.881,163.053,48.5,163.053z M28,158.053h18V112.72H28V158.053z" data-original="#000000" class="active-path" fill="#000000"/><path d="M94.5,163.053h-23c-1.381,0-2.5-1.119-2.5-2.5V110.22c0-1.381,1.119-2.5,2.5-2.5h23c1.381,0,2.5,1.119,2.5,2.5v50.333  C97,161.934,95.881,163.053,94.5,163.053z M74,158.053h18V112.72H74V158.053z" data-original="#000000" class="active-path" fill="#000000"/><path d="M140.5,163.053h-23c-1.381,0-2.5-1.119-2.5-2.5V110.22c0-1.381,1.119-2.5,2.5-2.5h23c1.381,0,2.5,1.119,2.5,2.5v50.333  C143,161.934,141.881,163.053,140.5,163.053z M120,158.053h18V112.72h-18V158.053z" data-original="#000000" class="active-path" fill="#000000"/><path d="M163.5,163.053h-23c-1.381,0-2.5-1.119-2.5-2.5V110.22c0-1.381,1.119-2.5,2.5-2.5h23c1.381,0,2.5,1.119,2.5,2.5v50.333  C166,161.934,164.881,163.053,163.5,163.053z M143,158.053h18V112.72h-18V158.053z" data-original="#000000" class="active-path" fill="#000000"/><path d="M146,24.78H20c-1.381,0-2.5-1.119-2.5-2.5s1.119-2.5,2.5-2.5h126c1.381,0,2.5,1.119,2.5,2.5S147.381,24.78,146,24.78z" data-original="#000000" class="active-path" fill="#000000"/><path d="M113.5,39.947H20c-1.381,0-2.5-1.119-2.5-2.5s1.119-2.5,2.5-2.5h93.5c1.381,0,2.5,1.119,2.5,2.5  S114.881,39.947,113.5,39.947z" data-original="#000000" class="active-path" fill="#000000"/><path d="M146,55.114H20c-1.381,0-2.5-1.119-2.5-2.5s1.119-2.5,2.5-2.5h126c1.381,0,2.5,1.119,2.5,2.5S147.381,55.114,146,55.114z" data-original="#000000" class="active-path" fill="#000000"/><path d="M129,70.28H20c-1.381,0-2.5-1.119-2.5-2.5s1.119-2.5,2.5-2.5h109c1.381,0,2.5,1.119,2.5,2.5S130.381,70.28,129,70.28z" data-original="#000000" class="active-path" fill="#000000"/><path d="M146,85.447H20c-1.381,0-2.5-1.119-2.5-2.5s1.119-2.5,2.5-2.5h126c1.381,0,2.5,1.119,2.5,2.5S147.381,85.447,146,85.447z" data-original="#000000" class="active-path" fill="#000000"/><path d="M48.5,128.78c-0.485,0-0.967-0.141-1.383-0.417C46.419,127.899,46,127.118,46,126.28v-16.06c0-1.381,1.119-2.5,2.5-2.5h23  c1.381,0,2.5,1.119,2.5,2.5v10.25c0,1.381-1.119,2.5-2.5,2.5h-8.69l-13.34,5.614C49.158,128.716,48.828,128.78,48.5,128.78z   M51,112.72v9.795l10.335-4.35c0.307-0.129,0.637-0.196,0.97-0.196H69v-5.25H51z" data-original="#000000" class="active-path" fill="#000000"/><path d="M163.5,112.72H2.5c-1.381,0-2.5-1.119-2.5-2.5s1.119-2.5,2.5-2.5h161c1.381,0,2.5,1.119,2.5,2.5  S164.881,112.72,163.5,112.72z" data-original="#000000" class="active-path" fill="#000000"/></g> </svg>
